<?xml version="1.0" standalone="no"?>
<!DOCTYPE svg PUBLIC "-//W3C//DTD SVG 20010904//EN"
 "http://www.w3.org/TR/2001/REC-SVG-20010904/DTD/svg10.dtd">
<svg version="1.0" xmlns="http://www.w3.org/2000/svg"
 width="16.000000pt" height="16.000000pt" viewBox="0 0 16.000000 16.000000"
 preserveAspectRatio="xMidYMid meet">
<metadata>
Created by potrace 1.11, written by Peter Selinger 2001-2013
</metadata>
<g transform="translate(0.000000,16.000000) scale(0.002822,-0.002822)"
fill="#000000" stroke="none">
<path d="M1861 4163 l-444 -443 0 -1248 c0 -686 3 -1261 7 -1277 10 -41 50
-91 89 -112 30 -17 86 -18 732 -19 385 -1 705 1 712 3 9 4 12 410 12 1772 l0
1767 -332 0 -332 1 -444 -444z"/>
<path d="M3412 3831 l3 -775 763 0 c420 -1 768 2 774 5 7 4 10 243 10 701 0
744 0 736 -50 791 -48 54 -20 52 -790 53 l-712 0 2 -775z"/>
<path d="M878 3377 l-168 -171 0 -1003 c0 -987 0 -1004 20 -1043 11 -22 39
-52 61 -67 37 -24 49 -27 155 -29 62 -1 114 1 115 5 6 51 0 2475 -7 2477 -5 1
-84 -75 -176 -169z"/>
<path d="M3410 1839 l0 -775 336 0 336 1 61 61 c34 34 229 232 433 440 205
209 375 382 379 386 9 8 9 647 1 656 -4 3 -353 6 -776 6 l-770 1 0 -776z"/>
</g>
</svg>
